# xmcd
#
# Track frame offsets: 
#        150
#        21145
#        37155
#        57147
#        81465
#        102502
#        123435
#        142667
#        156722
#        172077
#
# Disc length: 2605 seconds
#
# Revision: 2
# Processed by: cddbd v1.4PL0 Copyright (c) Steve Scherf et al.
# Submitted via: ExactAudioCopy v0.90b4
#
DISCID=8c0a2b0a
DTITLE=James Blundell - Sea
DYEAR=1995
DGENRE=Country
TTITLE0=Pride
TTITLE1=Hurt Is On The Inside
TTITLE2=The 7:45
TTITLE3=Libby
TTITLE4=Dark Ages
TTITLE5=Guardian Angels
TTITLE6=Bad Girl
TTITLE7=Her Sweet Love
TTITLE8=Walk On
TTITLE9=Something Sacred
EXTD=
EXTT0=
EXTT1=
EXTT2=
EXTT3=
EXTT4=
EXTT5=
EXTT6=
EXTT7=
EXTT8=
EXTT9=
PLAYORDER=
